<svg xmlns="http://www.w3.org/2000/svg" viewBox="0 0 320 360" role="img" aria-labelledby="title desc">
  <title id="title">State of Israel emblem</title>
  <desc id="desc">Blue shield with menorah and olive branches</desc>

  <rect width="320" height="360" fill="#ffffff" rx="10"/>

  <g transform="translate(30 24)">
    <path
      d="M130 10 L245 10 L245 182 C245 239 206 286 130 316 C54 286 15 239 15 182 L15 10 Z"
      fill="#188cc9"
      stroke="#0a75b5"
      stroke-width="5"
    />

    <g fill="none" stroke="#ffffff" stroke-linecap="round" stroke-linejoin="round">
      <path d="M65 72 C45 108 46 150 67 187" stroke-width="6"/>
      <path d="M79 66 C61 108 61 150 80 194" stroke-width="5"/>
      <path d="M91 61 C76 109 76 151 92 198" stroke-width="4"/>
      <path d="M195 72 C215 108 214 150 193 187" stroke-width="6"/>
      <path d="M181 66 C199 108 199 150 180 194" stroke-width="5"/>
      <path d="M169 61 C184 109 184 151 168 198" stroke-width="4"/>
    </g>

    <g stroke="#ffffff" stroke-linecap="round" stroke-linejoin="round" fill="none">
      <path d="M130 70 L130 163" stroke-width="8"/>
      <path d="M100 95 H160" stroke-width="8"/>
      <path d="M92 122 H168" stroke-width="7"/>
      <path d="M104 147 H156" stroke-width="6"/>
      <path d="M114 174 H146" stroke-width="6"/>
      <path d="M108 195 H152" stroke-width="7"/>
    </g>

    <g fill="#ffffff" font-family="Arial, Helvetica, sans-serif" font-weight="700">
      <rect x="81" y="212" width="98" height="28" rx="6" fill="none" stroke="#ffffff" stroke-width="3"/>
      <text x="95" y="232" font-size="24">Israel</text>
    </g>
  </g>
</svg>
